<svg width="86" height="85" viewBox="0 0 86 85" fill="none" xmlns="http://www.w3.org/2000/svg">
<g filter="url(#filter0_d_5045_89)">
<path d="M43.0633 8C26.9966 8 13.9722 21.2075 13.9722 37.5C13.9722 53.7925 26.9966 67 43.0633 67C59.13 67 72.1546 53.7925 72.1546 37.5C72.1545 21.2075 59.1298 8 43.0633 8ZM35.3018 51.7619H28.9145V30.8365H35.3018V51.7619ZM32.0777 28.0961C29.9917 28.0961 28.3006 26.3673 28.3006 24.235C28.3006 22.1025 29.9919 20.3738 32.0777 20.3738C34.1635 20.3738 35.8545 22.1025 35.8545 24.235C35.8547 26.3674 34.1636 28.0961 32.0777 28.0961ZM59.238 51.7619H52.8817V40.7778C52.8817 37.7652 51.7532 36.0835 49.4041 36.0835C46.8474 36.0835 45.5118 37.835 45.5118 40.7778V51.7619H39.3857V30.8365H45.5118V33.6548C45.5118 33.6548 47.3545 30.1982 51.7301 30.1982C56.1058 30.1982 59.2381 32.9075 59.2381 38.5122L59.238 51.7619Z" fill="url(#paint0_linear_5045_89)"/>
</g>
<defs>
<filter id="filter0_d_5045_89" x="0.972168" y="0" width="84.1826" height="85" filterUnits="userSpaceOnUse" color-interpolation-filters="sRGB">
<feFlood flood-opacity="0" result="BackgroundImageFix"/>
<feColorMatrix in="SourceAlpha" type="matrix" values="0 0 0 0 0 0 0 0 0 0 0 0 0 0 0 0 0 0 127 0" result="hardAlpha"/>
<feOffset dy="5"/>
<feGaussianBlur stdDeviation="6.5"/>
<feComposite in2="hardAlpha" operator="out"/>
<feColorMatrix type="matrix" values="0 0 0 0 0 0 0 0 0 0 0 0 0 0 0 0 0 0 0.7 0"/>
<feBlend mode="normal" in2="BackgroundImageFix" result="effect1_dropShadow_5045_89"/>
<feBlend mode="normal" in="SourceGraphic" in2="effect1_dropShadow_5045_89" result="shape"/>
</filter>
<linearGradient id="paint0_linear_5045_89" x1="22.4928" y1="16.6403" x2="64.208" y2="57.7775" gradientUnits="userSpaceOnUse">
<stop stop-color="white"/>
<stop offset="1" stop-color="white"/>
</linearGradient>
</defs>
</svg>
