<svg width="75" height="81" viewBox="0 0 75 81" fill="none" xmlns="http://www.w3.org/2000/svg">
<g filter="url(#filter0_d_5045_87)">
<path d="M61.4919 31.5787V21.9782C57.0289 21.9782 53.623 20.7781 51.425 18.4456C49.1692 15.7836 47.9054 12.4124 47.8513 8.91272V8.21973L38.8414 8V46.9935C38.5324 48.6949 37.7126 50.2597 36.4927 51.4768C35.2729 52.6938 33.7117 53.5046 32.02 53.7995C30.3283 54.0945 28.5875 53.8594 27.0326 53.1261C25.4777 52.3928 24.1835 51.1965 23.3249 49.6988C22.4662 48.2011 22.0844 46.474 22.231 44.7507C22.3775 43.0275 23.0454 41.391 24.1445 40.0623C25.2435 38.7335 26.7208 37.7764 28.3769 37.3203C30.0329 36.8641 31.7881 36.9308 33.4053 37.5114V28.2151C32.4624 28.0595 31.5086 27.9803 30.553 27.9785C27.1152 27.9785 23.7545 29.0055 20.896 30.9296C18.0376 32.8537 15.8097 35.5885 14.494 38.7882C13.1784 41.9878 12.8342 45.5087 13.5049 48.9054C14.1756 52.3022 15.8311 55.4223 18.262 57.8712C20.693 60.3201 23.7902 61.9879 27.162 62.6635C30.5338 63.3392 34.0287 62.9924 37.2049 61.6671C40.3811 60.3417 43.0958 58.0973 45.0058 55.2177C46.9157 52.3381 47.9352 48.9525 47.9352 45.4892C47.9333 44.7716 47.8885 44.0548 47.801 43.3427V27.8771C51.8979 30.4546 56.6645 31.7433 61.4919 31.5787Z" fill="white"/>
</g>
<defs>
<filter id="filter0_d_5045_87" x="0.170898" y="0" width="74.3208" height="81" filterUnits="userSpaceOnUse" color-interpolation-filters="sRGB">
<feFlood flood-opacity="0" result="BackgroundImageFix"/>
<feColorMatrix in="SourceAlpha" type="matrix" values="0 0 0 0 0 0 0 0 0 0 0 0 0 0 0 0 0 0 127 0" result="hardAlpha"/>
<feOffset dy="5"/>
<feGaussianBlur stdDeviation="6.5"/>
<feComposite in2="hardAlpha" operator="out"/>
<feColorMatrix type="matrix" values="0 0 0 0 0 0 0 0 0 0 0 0 0 0 0 0 0 0 0.7 0"/>
<feBlend mode="normal" in2="BackgroundImageFix" result="effect1_dropShadow_5045_87"/>
<feBlend mode="normal" in="SourceGraphic" in2="effect1_dropShadow_5045_87" result="shape"/>
</filter>
</defs>
</svg>
